HIERARCHY
ROOT Hips
{
    OFFSET 0.000000 0.000000 0.000000
    CHANNELS 6 Xposition Yposition Zposition Zrotation Xrotation Yrotation
    JOINT Spine
    {
        OFFSET -0.000000 14.517291 0.000000
        CHANNELS 3 Zrotation Xrotation Yrotation
        JOINT Spine1
        {
            OFFSET -0.000000 37.558300 0.000000
            CHANNELS 3 Zrotation Xrotation Yrotation
            JOINT Neck
            {
                OFFSET -0.000000 37.404057 3.400369
                CHANNELS 3 Zrotation Xrotation Yrotation
                JOINT Head
                {
                    OFFSET -0.000000 24.785618 -3.540803
                    CHANNELS 3 Zrotation Xrotation Yrotation
                    End Site
                    {
                        OFFSET -0.000000 35.408028 0.000000
                    }
                }
            }
            JOINT LeftShoulder
            {
                OFFSET 6.992933 33.973492 -0.192664
                CHANNELS 3 Zrotation Xrotation Yrotation
                JOINT LeftArm
                {
                    OFFSET 21.527611 0.000000 0.000000
                    CHANNELS 3 Zrotation Xrotation Yrotation
                    JOINT LeftForeArm
                    {
                        OFFSET 56.353916 0.000000 0.000000
                        CHANNELS 3 Zrotation Xrotation Yrotation
                        JOINT LeftHand
                        {
                            OFFSET 47.774071 0.000000 0.000000
                            CHANNELS 3 Zrotation Xrotation Yrotation
                            End Site
                            {
                                OFFSET 26.556021 0.000000 0.000000
                            }
                        }
                    }
                }
            }
            JOINT RightShoulder
            {
                OFFSET -7.065357 33.973492 -0.192664
                CHANNELS 3 Zrotation Xrotation Yrotation
                JOINT RightArm
                {
                    OFFSET -21.527611 0.000000 0.000000
                    CHANNELS 3 Zrotation Xrotation Yrotation
                    JOINT RightForeArm
                    {
                        OFFSET -56.353916 0.000000 0.000000
                        CHANNELS 3 Zrotation Xrotation Yrotation
                        JOINT RightHand
                        {
                            OFFSET -47.774071 0.000000 0.000000
                            CHANNELS 3 Zrotation Xrotation Yrotation
                            End Site
                            {
                                OFFSET -26.556021 0.000000 0.000000
                            }
                        }
                    }
                }
            }
        }
    }
    JOINT LeftUpLeg
    {
        OFFSET 17.704014 0.000000 0.000000
        CHANNELS 3 Zrotation Xrotation Yrotation
        JOINT LeftLeg
        {
            OFFSET -0.000000 -81.181816 0.000000
            CHANNELS 3 Zrotation Xrotation Yrotation
            JOINT LeftFoot
            {
                OFFSET -0.000000 -62.821102 0.000000
                CHANNELS 3 Zrotation Xrotation Yrotation
                JOINT LeftToeBase
                {
                    OFFSET -0.000000 -11.507608 26.556021
                    CHANNELS 3 Zrotation Xrotation Yrotation
                    End Site
                    {
                        OFFSET -0.000000 0.000000 7.081605
                    }
                }
            }
        }
    }
    JOINT RightUpLeg
    {
        OFFSET -17.704014 0.000000 0.000000
        CHANNELS 3 Zrotation Xrotation Yrotation
        JOINT RightLeg
        {
            OFFSET -0.000000 -81.181816 0.000000
            CHANNELS 3 Zrotation Xrotation Yrotation
            JOINT RightFoot
            {
                OFFSET -0.000000 -62.821102 0.000000
                CHANNELS 3 Zrotation Xrotation Yrotation
                JOINT RightToeBase
                {
                    OFFSET -0.000000 -11.507608 26.556021
                    CHANNELS 3 Zrotation Xrotation Yrotation
                    End Site
                    {
                        OFFSET -0.000000 0.000000 7.081605
                    }
                }
            }
        }
    }
}
MOTION
Frames:    8
Frame Time:    0.008333
-12.404579    152.289124    -97.493126    1.397183    -6.025759    46.087631    -3.027015    -0.765124    -1.108826    -0.496834    2.759822    -0.352276    -1.123404    4.489411    -19.176991    15.711845    2.136424    -17.986135    3.378564    10.926022    -14.581314    -24.923113    28.812208    -39.654839    -30.206129    5.979090    -29.946844    -0.626431    -2.178178    -21.141941    2.424982    12.256150    -7.092880    36.463421    18.160589    43.223061    -13.560473    0.039999    32.388538    -27.195486    -3.349585    29.663218    19.082804    -2.569182    -4.329557    -18.950939    40.543800    -20.342621    7.538324    -31.131292    50.599136    0.000000    0.000000    0.000000    -23.161945    -15.787779    -25.361807    10.259535    30.060694    -18.964676    7.382140    6.635066    -7.511204    0.000000    0.000000    0.000000    
-12.406455    152.294586    -97.467590    1.397216    -6.048877    46.107517    -3.041151    -0.769962    -1.099702    -0.469994    2.761342    -0.349802    -1.136147    4.512819    -19.184181    15.733799    2.125390    -17.988428    3.372136    10.885908    -14.569295    -24.956013    28.799000    -39.525749    -30.285816    6.035203    -30.010599    -0.662937    -2.156673    -21.114250    2.407399    12.260799    -7.103910    36.489975    18.143784    43.195049    -13.525310    0.100566    32.387810    -27.213232    -3.313306    29.696964    19.106543    -2.549679    -4.348839    -18.942986    40.527302    -20.347435    7.530245    -31.128719    50.596409    0.000000    0.000000    0.000000    -23.148993    -15.771610    -25.364895    10.256806    30.093521    -18.950394    7.406062    6.634098    -7.514272    0.000000    0.000000    0.000000    
-12.410267    152.302414    -97.438690    1.390606    -6.068418    46.123592    -3.049067    -0.785974    -1.091707    -0.458997    2.765871    -0.347274    -1.136784    4.504951    -19.188862    15.737552    2.157093    -17.997084    3.382535    10.843731    -14.556767    -24.987743    28.808228    -39.405479    -30.326233    6.093577    -30.115471    -0.679809    -2.137552    -21.050627    2.409946    12.260368    -7.106469    36.501503    18.149553    43.159302    -13.515520    0.112485    32.391773    -27.216660    -3.294114    29.656069    19.132986    -2.537616    -4.348930    -18.925755    40.524345    -20.374130    7.521441    -31.135942    50.596149    0.000000    0.000000    0.000000    -23.124365    -15.758981    -25.351824    10.259629    30.105021    -18.965971    7.437094    6.638463    -7.535007    0.000000    0.000000    0.000000    
-12.413971    152.311844    -97.411331    1.387771    -6.088710    46.147373    -3.058757    -0.789145    -1.088491    -0.440817    2.750010    -0.346654    -1.154207    4.513422    -19.191544    15.750340    2.182754    -18.000120    3.377787    10.819672    -14.537563    -24.990372    28.820801    -39.325787    -30.405218    6.061495    -30.214329    -0.624232    -2.232007    -21.050257    2.399750    12.285505    -7.114926    36.506557    18.161381    43.143532    -13.513434    0.111485    32.395248    -27.197258    -3.296428    29.681513    19.158302    -2.523365    -4.347974    -18.911259    40.513935    -20.392317    7.515492    -31.115314    50.584316    0.000000    0.000000    0.000000    -23.103464    -15.741528    -25.348907    10.255923    30.120110    -18.950994    7.435358    6.645461    -7.554838    0.000000    0.000000    0.000000    
-12.414661    152.321686    -97.383896    1.386577    -6.105597    46.170441    -3.070276    -0.799293    -1.083758    -0.424523    2.745017    -0.345355    -1.178200    4.531888    -19.195368    15.775419    2.183495    -17.998854    3.377979    10.788512    -14.526808    -24.996525    28.839012    -39.256786    -30.414501    6.058066    -30.313444    -0.657800    -2.260836    -21.070576    2.392488    12.291690    -7.118048    36.528290    18.145203    43.122852    -13.681967    0.571486    32.059265    -27.446508    -3.160700    30.669092    19.179224    -2.504466    -4.355178    -18.898165    40.490425    -20.394634    7.508160    -31.105228    50.562901    0.000000    0.000000    0.000000    -23.082914    -15.720917    -25.341610    10.256007    30.124161    -18.945360    7.447056    6.644507    -7.598621    0.000000    0.000000    0.000000    
-12.414130    152.328323    -97.355011    1.393982    -6.118475    46.202278    -3.096165    -0.803800    -1.083014    -0.406193    2.735748    -0.345578    -1.167668    4.537855    -19.199467    15.750595    2.185659    -18.007614    3.377800    10.752314    -14.513153    -24.994562    28.870750    -39.205387    -30.424370    6.024547    -30.424528    -0.682363    -2.325366    -21.078896    2.393241    12.277247    -7.114545    36.554790    18.124289    43.066452    -13.650846    0.635357    32.053692    -27.477459    -3.129322    30.720617    19.190189    -2.487134    -4.365854    -18.881672    40.474354    -20.414299    7.494562    -31.104868    50.557800    0.000000    0.000000    0.000000    -23.076332    -15.690866    -25.337429    10.256525    30.137497    -18.971186    7.483350    6.621207    -7.576430    0.000000    0.000000    0.000000    
-12.415424    152.335938    -97.325531    1.396492    -6.133031    46.231667    -3.118272    -0.816914    -1.083499    -0.379445    2.736467    -0.346196    -1.185607    4.540396    -19.203030    15.756118    2.200614    -18.010832    3.369509    10.735312    -14.496430    -24.981539    28.852987    -39.186001    -30.445625    6.012270    -30.500669    -0.729602    -2.357440    -21.087673    2.380455    12.271371    -7.116637    36.579800    18.123594    43.028381    -13.635011    0.655726    32.060715    -27.494619    -3.118037    30.721783    19.205328    -2.474164    -4.351772    -18.838366    40.470791    -20.458765    7.470662    -31.107176    50.536480    0.000000    0.000000    0.000000    -23.061565    -15.666243    -25.330492    10.255540    30.144464    -18.950571    7.496282    6.617488    -7.620920    0.000000    0.000000    0.000000    
-12.418975    152.343018    -97.298470    1.397206    -6.143675    46.270927    -3.141872    -0.826277    -1.085200    -0.356681    2.725491    -0.347241    -1.212771    4.561448    -19.211288    15.796660    2.200444    -18.011965    3.370679    10.725889    -14.500442    -24.974728    28.850435    -39.163517    -30.437231    5.938731    -30.617405    -0.776069    -2.454224    -21.119026    2.384423    12.277277    -7.131078    36.593513    18.099239    42.998585    -13.597568    0.677569    32.081024    -27.508604    -3.103582    30.702724    19.217421    -2.472988    -4.370348    -18.818970    40.462341    -20.471981    7.455222    -31.102287    50.528580    0.000000    0.000000    0.000000    -23.054699    -15.638727    -25.339905    10.262384    30.155893    -18.952921    7.490467    6.597054    -7.624424    0.000000    0.000000    0.000000    
